<svg xmlns="http://www.w3.org/2000/svg" version="1.1" xmlns:xlink="http://www.w3.org/1999/xlink" xmlns:svgjs="http://svgjs.dev/svgjs" viewBox="0 0 800 800" width="800" height="800"><g stroke-width="0.5" stroke="hsla(0, 0%, 80%, 1.00)" fill="none"><rect width="66.66666666666667" height="61.53846153846154" x="0" y="0"></rect><rect width="66.66666666666667" height="61.53846153846154" x="66.66666666666667" y="0"></rect><rect width="66.66666666666667" height="61.53846153846154" x="133.33333333333334" y="0"></rect><rect width="66.66666666666667" height="61.53846153846154" x="200" y="0"></rect><rect width="66.66666666666667" height="61.53846153846154" x="266.6666666666667" y="0"></rect><rect width="66.66666666666667" height="61.53846153846154" x="333.33333333333337" y="0"></rect><rect width="66.66666666666667" height="61.53846153846154" x="400.00000000000006" y="0"></rect><rect width="66.66666666666667" height="61.53846153846154" x="466.66666666666674" y="0"></rect><rect width="66.66666666666667" height="61.53846153846154" x="533.3333333333334" y="0"></rect><rect width="66.66666666666667" height="61.53846153846154" x="600" y="0"></rect><rect width="66.66666666666667" height="61.53846153846154" x="666.6666666666666" y="0"></rect><rect width="66.66666666666667" height="61.53846153846154" x="733.3333333333333" y="0"></rect><rect width="66.66666666666667" height="61.53846153846154" x="799.9999999999999" y="0"></rect><rect width="66.66666666666667" height="61.53846153846154" x="0" y="61.53846153846154"></rect><rect width="66.66666666666667" height="61.53846153846154" x="66.66666666666667" y="61.53846153846154"></rect><rect width="66.66666666666667" height="61.53846153846154" x="133.33333333333334" y="61.53846153846154"></rect><rect width="66.66666666666667" height="61.53846153846154" x="200" y="61.53846153846154"></rect><rect width="66.66666666666667" height="61.53846153846154" x="266.6666666666667" y="61.53846153846154"></rect><rect width="66.66666666666667" height="61.53846153846154" x="333.33333333333337" y="61.53846153846154"></rect><rect width="66.66666666666667" height="61.53846153846154" x="400.00000000000006" y="61.53846153846154"></rect><rect width="66.66666666666667" height="61.53846153846154" x="466.66666666666674" y="61.53846153846154"></rect><rect width="66.66666666666667" height="61.53846153846154" x="533.3333333333334" y="61.53846153846154"></rect><rect width="66.66666666666667" height="61.53846153846154" x="600" y="61.53846153846154"></rect><rect width="66.66666666666667" height="61.53846153846154" x="666.6666666666666" y="61.53846153846154"></rect><rect width="66.66666666666667" height="61.53846153846154" x="733.3333333333333" y="61.53846153846154"></rect><rect width="66.66666666666667" height="61.53846153846154" x="799.9999999999999" y="61.53846153846154"></rect><rect width="66.66666666666667" height="61.53846153846154" x="0" y="123.07692307692308"></rect><rect width="66.66666666666667" height="61.53846153846154" x="66.66666666666667" y="123.07692307692308"></rect><rect width="66.66666666666667" height="61.53846153846154" x="133.33333333333334" y="123.07692307692308"></rect><rect width="66.66666666666667" height="61.53846153846154" x="200" y="123.07692307692308"></rect><rect width="66.66666666666667" height="61.53846153846154" x="266.6666666666667" y="123.07692307692308"></rect><rect width="66.66666666666667" height="61.53846153846154" x="333.33333333333337" y="123.07692307692308"></rect><rect width="66.66666666666667" height="61.53846153846154" x="400.00000000000006" y="123.07692307692308"></rect><rect width="66.66666666666667" height="61.53846153846154" x="466.66666666666674" y="123.07692307692308"></rect><rect width="66.66666666666667" height="61.53846153846154" x="533.3333333333334" y="123.07692307692308"></rect><rect width="66.66666666666667" height="61.53846153846154" x="600" y="123.07692307692308"></rect><rect width="66.66666666666667" height="61.53846153846154" x="666.6666666666666" y="123.07692307692308"></rect><rect width="66.66666666666667" height="61.53846153846154" x="733.3333333333333" y="123.07692307692308"></rect><rect width="66.66666666666667" height="61.53846153846154" x="799.9999999999999" y="123.07692307692308"></rect><rect width="66.66666666666667" height="61.53846153846154" x="0" y="184.6153846153846"></rect><rect width="66.66666666666667" height="61.53846153846154" x="66.66666666666667" y="184.6153846153846"></rect><rect width="66.66666666666667" height="61.53846153846154" x="133.33333333333334" y="184.6153846153846"></rect><rect width="66.66666666666667" height="61.53846153846154" x="200" y="184.6153846153846"></rect><rect width="66.66666666666667" height="61.53846153846154" x="266.6666666666667" y="184.6153846153846"></rect><rect width="66.66666666666667" height="61.53846153846154" x="333.33333333333337" y="184.6153846153846"></rect><rect width="66.66666666666667" height="61.53846153846154" x="400.00000000000006" y="184.6153846153846"></rect><rect width="66.66666666666667" height="61.53846153846154" x="466.66666666666674" y="184.6153846153846"></rect><rect width="66.66666666666667" height="61.53846153846154" x="533.3333333333334" y="184.6153846153846"></rect><rect width="66.66666666666667" height="61.53846153846154" x="600" y="184.6153846153846"></rect><rect width="66.66666666666667" height="61.53846153846154" x="666.6666666666666" y="184.6153846153846"></rect><rect width="66.66666666666667" height="61.53846153846154" x="733.3333333333333" y="184.6153846153846"></rect><rect width="66.66666666666667" height="61.53846153846154" x="799.9999999999999" y="184.6153846153846"></rect><rect width="66.66666666666667" height="61.53846153846154" x="0" y="246.15384615384616"></rect><rect width="66.66666666666667" height="61.53846153846154" x="66.66666666666667" y="246.15384615384616"></rect><rect width="66.66666666666667" height="61.53846153846154" x="133.33333333333334" y="246.15384615384616"></rect><rect width="66.66666666666667" height="61.53846153846154" x="200" y="246.15384615384616"></rect><rect width="66.66666666666667" height="61.53846153846154" x="266.6666666666667" y="246.15384615384616"></rect><rect width="66.66666666666667" height="61.53846153846154" x="333.33333333333337" y="246.15384615384616"></rect><rect width="66.66666666666667" height="61.53846153846154" x="400.00000000000006" y="246.15384615384616"></rect><rect width="66.66666666666667" height="61.53846153846154" x="466.66666666666674" y="246.15384615384616"></rect><rect width="66.66666666666667" height="61.53846153846154" x="533.3333333333334" y="246.15384615384616"></rect><rect width="66.66666666666667" height="61.53846153846154" x="600" y="246.15384615384616"></rect><rect width="66.66666666666667" height="61.53846153846154" x="666.6666666666666" y="246.15384615384616"></rect><rect width="66.66666666666667" height="61.53846153846154" x="733.3333333333333" y="246.15384615384616"></rect><rect width="66.66666666666667" height="61.53846153846154" x="799.9999999999999" y="246.15384615384616"></rect><rect width="66.66666666666667" height="61.53846153846154" x="0" y="307.6923076923077"></rect><rect width="66.66666666666667" height="61.53846153846154" x="66.66666666666667" y="307.6923076923077"></rect><rect width="66.66666666666667" height="61.53846153846154" x="133.33333333333334" y="307.6923076923077"></rect><rect width="66.66666666666667" height="61.53846153846154" x="200" y="307.6923076923077"></rect><rect width="66.66666666666667" height="61.53846153846154" x="266.6666666666667" y="307.6923076923077"></rect><rect width="66.66666666666667" height="61.53846153846154" x="333.33333333333337" y="307.6923076923077"></rect><rect width="66.66666666666667" height="61.53846153846154" x="400.00000000000006" y="307.6923076923077"></rect><rect width="66.66666666666667" height="61.53846153846154" x="466.66666666666674" y="307.6923076923077"></rect><rect width="66.66666666666667" height="61.53846153846154" x="533.3333333333334" y="307.6923076923077"></rect><rect width="66.66666666666667" height="61.53846153846154" x="600" y="307.6923076923077"></rect><rect width="66.66666666666667" height="61.53846153846154" x="666.6666666666666" y="307.6923076923077"></rect><rect width="66.66666666666667" height="61.53846153846154" x="733.3333333333333" y="307.6923076923077"></rect><rect width="66.66666666666667" height="61.53846153846154" x="799.9999999999999" y="307.6923076923077"></rect><rect width="66.66666666666667" height="61.53846153846154" x="0" y="369.2307692307692"></rect><rect width="66.66666666666667" height="61.53846153846154" x="66.66666666666667" y="369.2307692307692"></rect><rect width="66.66666666666667" height="61.53846153846154" x="133.33333333333334" y="369.2307692307692"></rect><rect width="66.66666666666667" height="61.53846153846154" x="200" y="369.2307692307692"></rect><rect width="66.66666666666667" height="61.53846153846154" x="266.6666666666667" y="369.2307692307692"></rect><rect width="66.66666666666667" height="61.53846153846154" x="333.33333333333337" y="369.2307692307692"></rect><rect width="66.66666666666667" height="61.53846153846154" x="400.00000000000006" y="369.2307692307692"></rect><rect width="66.66666666666667" height="61.53846153846154" x="466.66666666666674" y="369.2307692307692"></rect><rect width="66.66666666666667" height="61.53846153846154" x="533.3333333333334" y="369.2307692307692"></rect><rect width="66.66666666666667" height="61.53846153846154" x="600" y="369.2307692307692"></rect><rect width="66.66666666666667" height="61.53846153846154" x="666.6666666666666" y="369.2307692307692"></rect><rect width="66.66666666666667" height="61.53846153846154" x="733.3333333333333" y="369.2307692307692"></rect><rect width="66.66666666666667" height="61.53846153846154" x="799.9999999999999" y="369.2307692307692"></rect><rect width="66.66666666666667" height="61.53846153846154" x="0" y="430.7692307692308"></rect><rect width="66.66666666666667" height="61.53846153846154" x="66.66666666666667" y="430.7692307692308"></rect><rect width="66.66666666666667" height="61.53846153846154" x="133.33333333333334" y="430.7692307692308"></rect><rect width="66.66666666666667" height="61.53846153846154" x="200" y="430.7692307692308"></rect><rect width="66.66666666666667" height="61.53846153846154" x="266.6666666666667" y="430.7692307692308"></rect><rect width="66.66666666666667" height="61.53846153846154" x="333.33333333333337" y="430.7692307692308"></rect><rect width="66.66666666666667" height="61.53846153846154" x="400.00000000000006" y="430.7692307692308"></rect><rect width="66.66666666666667" height="61.53846153846154" x="466.66666666666674" y="430.7692307692308"></rect><rect width="66.66666666666667" height="61.53846153846154" x="533.3333333333334" y="430.7692307692308"></rect><rect width="66.66666666666667" height="61.53846153846154" x="600" y="430.7692307692308"></rect><rect width="66.66666666666667" height="61.53846153846154" x="666.6666666666666" y="430.7692307692308"></rect><rect width="66.66666666666667" height="61.53846153846154" x="733.3333333333333" y="430.7692307692308"></rect><rect width="66.66666666666667" height="61.53846153846154" x="799.9999999999999" y="430.7692307692308"></rect><rect width="66.66666666666667" height="61.53846153846154" x="0" y="492.3076923076923"></rect><rect width="66.66666666666667" height="61.53846153846154" x="66.66666666666667" y="492.3076923076923"></rect><rect width="66.66666666666667" height="61.53846153846154" x="133.33333333333334" y="492.3076923076923"></rect><rect width="66.66666666666667" height="61.53846153846154" x="200" y="492.3076923076923"></rect><rect width="66.66666666666667" height="61.53846153846154" x="266.6666666666667" y="492.3076923076923"></rect><rect width="66.66666666666667" height="61.53846153846154" x="333.33333333333337" y="492.3076923076923"></rect><rect width="66.66666666666667" height="61.53846153846154" x="400.00000000000006" y="492.3076923076923"></rect><rect width="66.66666666666667" height="61.53846153846154" x="466.66666666666674" y="492.3076923076923"></rect><rect width="66.66666666666667" height="61.53846153846154" x="533.3333333333334" y="492.3076923076923"></rect><rect width="66.66666666666667" height="61.53846153846154" x="600" y="492.3076923076923"></rect><rect width="66.66666666666667" height="61.53846153846154" x="666.6666666666666" y="492.3076923076923"></rect><rect width="66.66666666666667" height="61.53846153846154" x="733.3333333333333" y="492.3076923076923"></rect><rect width="66.66666666666667" height="61.53846153846154" x="799.9999999999999" y="492.3076923076923"></rect><rect width="66.66666666666667" height="61.53846153846154" x="0" y="553.8461538461538"></rect><rect width="66.66666666666667" height="61.53846153846154" x="66.66666666666667" y="553.8461538461538"></rect><rect width="66.66666666666667" height="61.53846153846154" x="133.33333333333334" y="553.8461538461538"></rect><rect width="66.66666666666667" height="61.53846153846154" x="200" y="553.8461538461538"></rect><rect width="66.66666666666667" height="61.53846153846154" x="266.6666666666667" y="553.8461538461538"></rect><rect width="66.66666666666667" height="61.53846153846154" x="333.33333333333337" y="553.8461538461538"></rect><rect width="66.66666666666667" height="61.53846153846154" x="400.00000000000006" y="553.8461538461538"></rect><rect width="66.66666666666667" height="61.53846153846154" x="466.66666666666674" y="553.8461538461538"></rect><rect width="66.66666666666667" height="61.53846153846154" x="533.3333333333334" y="553.8461538461538"></rect><rect width="66.66666666666667" height="61.53846153846154" x="600" y="553.8461538461538"></rect><rect width="66.66666666666667" height="61.53846153846154" x="666.6666666666666" y="553.8461538461538"></rect><rect width="66.66666666666667" height="61.53846153846154" x="733.3333333333333" y="553.8461538461538"></rect><rect width="66.66666666666667" height="61.53846153846154" x="799.9999999999999" y="553.8461538461538"></rect><rect width="66.66666666666667" height="61.53846153846154" x="0" y="615.3846153846154"></rect><rect width="66.66666666666667" height="61.53846153846154" x="66.66666666666667" y="615.3846153846154"></rect><rect width="66.66666666666667" height="61.53846153846154" x="133.33333333333334" y="615.3846153846154"></rect><rect width="66.66666666666667" height="61.53846153846154" x="200" y="615.3846153846154"></rect><rect width="66.66666666666667" height="61.53846153846154" x="266.6666666666667" y="615.3846153846154"></rect><rect width="66.66666666666667" height="61.53846153846154" x="333.33333333333337" y="615.3846153846154"></rect><rect width="66.66666666666667" height="61.53846153846154" x="400.00000000000006" y="615.3846153846154"></rect><rect width="66.66666666666667" height="61.53846153846154" x="466.66666666666674" y="615.3846153846154"></rect><rect width="66.66666666666667" height="61.53846153846154" x="533.3333333333334" y="615.3846153846154"></rect><rect width="66.66666666666667" height="61.53846153846154" x="600" y="615.3846153846154"></rect><rect width="66.66666666666667" height="61.53846153846154" x="666.6666666666666" y="615.3846153846154"></rect><rect width="66.66666666666667" height="61.53846153846154" x="733.3333333333333" y="615.3846153846154"></rect><rect width="66.66666666666667" height="61.53846153846154" x="799.9999999999999" y="615.3846153846154"></rect><rect width="66.66666666666667" height="61.53846153846154" x="0" y="676.9230769230769"></rect><rect width="66.66666666666667" height="61.53846153846154" x="66.66666666666667" y="676.9230769230769"></rect><rect width="66.66666666666667" height="61.53846153846154" x="133.33333333333334" y="676.9230769230769"></rect><rect width="66.66666666666667" height="61.53846153846154" x="200" y="676.9230769230769"></rect><rect width="66.66666666666667" height="61.53846153846154" x="266.6666666666667" y="676.9230769230769"></rect><rect width="66.66666666666667" height="61.53846153846154" x="333.33333333333337" y="676.9230769230769"></rect><rect width="66.66666666666667" height="61.53846153846154" x="400.00000000000006" y="676.9230769230769"></rect><rect width="66.66666666666667" height="61.53846153846154" x="466.66666666666674" y="676.9230769230769"></rect><rect width="66.66666666666667" height="61.53846153846154" x="533.3333333333334" y="676.9230769230769"></rect><rect width="66.66666666666667" height="61.53846153846154" x="600" y="676.9230769230769"></rect><rect width="66.66666666666667" height="61.53846153846154" x="666.6666666666666" y="676.9230769230769"></rect><rect width="66.66666666666667" height="61.53846153846154" x="733.3333333333333" y="676.9230769230769"></rect><rect width="66.66666666666667" height="61.53846153846154" x="799.9999999999999" y="676.9230769230769"></rect><rect width="66.66666666666667" height="61.53846153846154" x="0" y="738.4615384615385"></rect><rect width="66.66666666666667" height="61.53846153846154" x="66.66666666666667" y="738.4615384615385"></rect><rect width="66.66666666666667" height="61.53846153846154" x="133.33333333333334" y="738.4615384615385"></rect><rect width="66.66666666666667" height="61.53846153846154" x="200" y="738.4615384615385"></rect><rect width="66.66666666666667" height="61.53846153846154" x="266.6666666666667" y="738.4615384615385"></rect><rect width="66.66666666666667" height="61.53846153846154" x="333.33333333333337" y="738.4615384615385"></rect><rect width="66.66666666666667" height="61.53846153846154" x="400.00000000000006" y="738.4615384615385"></rect><rect width="66.66666666666667" height="61.53846153846154" x="466.66666666666674" y="738.4615384615385"></rect><rect width="66.66666666666667" height="61.53846153846154" x="533.3333333333334" y="738.4615384615385"></rect><rect width="66.66666666666667" height="61.53846153846154" x="600" y="738.4615384615385"></rect><rect width="66.66666666666667" height="61.53846153846154" x="666.6666666666666" y="738.4615384615385"></rect><rect width="66.66666666666667" height="61.53846153846154" x="733.3333333333333" y="738.4615384615385"></rect><rect width="66.66666666666667" height="61.53846153846154" x="799.9999999999999" y="738.4615384615385"></rect><rect width="66.66666666666667" height="61.53846153846154" x="0" y="800"></rect><rect width="66.66666666666667" height="61.53846153846154" x="66.66666666666667" y="800"></rect><rect width="66.66666666666667" height="61.53846153846154" x="133.33333333333334" y="800"></rect><rect width="66.66666666666667" height="61.53846153846154" x="200" y="800"></rect><rect width="66.66666666666667" height="61.53846153846154" x="266.6666666666667" y="800"></rect><rect width="66.66666666666667" height="61.53846153846154" x="333.33333333333337" y="800"></rect><rect width="66.66666666666667" height="61.53846153846154" x="400.00000000000006" y="800"></rect><rect width="66.66666666666667" height="61.53846153846154" x="466.66666666666674" y="800"></rect><rect width="66.66666666666667" height="61.53846153846154" x="533.3333333333334" y="800"></rect><rect width="66.66666666666667" height="61.53846153846154" x="600" y="800"></rect><rect width="66.66666666666667" height="61.53846153846154" x="666.6666666666666" y="800"></rect><rect width="66.66666666666667" height="61.53846153846154" x="733.3333333333333" y="800"></rect><rect width="66.66666666666667" height="61.53846153846154" x="799.9999999999999" y="800"></rect></g></svg>